<svg xmlns="http://www.w3.org/2000/svg" xmlns:xlink="http://www.w3.org/1999/xlink" width="200" zoomAndPan="magnify" viewBox="0 0 150 74.999997" height="100" preserveAspectRatio="xMidYMid meet" version="1.0"><defs><g/></defs><rect x="-15" width="180" fill="#ffffff" y="-7.5" height="89.999996" fill-opacity="1"/><rect x="-15" width="180" fill="#ffffff" y="-7.5" height="89.999996" fill-opacity="1"/><g fill="#c0c0c0" fill-opacity="1"><g transform="translate(2.181492, 54.229609)"><g><path d="M 15.78125 0.515625 C 13.3125 0.515625 11.113281 0.210938 9.1875 -0.390625 C 7.269531 -1.003906 5.664062 -1.804688 4.375 -2.796875 C 3.09375 -3.785156 2.113281 -4.875 1.4375 -6.0625 L 5.3125 -10.78125 L 5.921875 -10.78125 C 6.984375 -9.195312 8.335938 -7.929688 9.984375 -6.984375 C 11.640625 -6.046875 13.570312 -5.578125 15.78125 -5.578125 C 17.65625 -5.578125 19.070312 -5.972656 20.03125 -6.765625 C 20.988281 -7.566406 21.46875 -8.660156 21.46875 -10.046875 C 21.46875 -10.898438 21.3125 -11.609375 21 -12.171875 C 20.695312 -12.742188 20.1875 -13.226562 19.46875 -13.625 C 18.757812 -14.03125 17.796875 -14.382812 16.578125 -14.6875 L 12 -15.734375 C 8.800781 -16.460938 6.414062 -17.671875 4.84375 -19.359375 C 3.28125 -21.054688 2.5 -23.257812 2.5 -25.96875 C 2.5 -27.988281 3.003906 -29.757812 4.015625 -31.28125 C 5.023438 -32.8125 6.488281 -34 8.40625 -34.84375 C 10.332031 -35.6875 12.632812 -36.109375 15.3125 -36.109375 C 18.050781 -36.109375 20.398438 -35.742188 22.359375 -35.015625 C 24.316406 -34.296875 25.96875 -33.191406 27.3125 -31.703125 L 23.828125 -26.921875 L 23.21875 -26.921875 C 22.21875 -27.984375 21.066406 -28.773438 19.765625 -29.296875 C 18.472656 -29.828125 16.988281 -30.09375 15.3125 -30.09375 C 13.382812 -30.09375 11.914062 -29.75 10.90625 -29.0625 C 9.894531 -28.382812 9.390625 -27.445312 9.390625 -26.25 C 9.390625 -25.125 9.742188 -24.226562 10.453125 -23.5625 C 11.160156 -22.894531 12.382812 -22.378906 14.125 -22.015625 L 18.796875 -21.03125 C 22.253906 -20.300781 24.757812 -19.0625 26.3125 -17.3125 C 27.875 -15.570312 28.65625 -13.300781 28.65625 -10.5 C 28.65625 -8.269531 28.175781 -6.332031 27.21875 -4.6875 C 26.257812 -3.039062 24.8125 -1.757812 22.875 -0.84375 C 20.945312 0.0625 18.582031 0.515625 15.78125 0.515625 Z M 15.78125 0.515625 "/></g></g></g><g fill="#c0c0c0" fill-opacity="1"><g transform="translate(33.512677, 54.229609)"><g><path d="M 11.65625 0 L 4.625 0 L 4.625 -35.59375 L 11.65625 -35.59375 Z M 11.65625 0 "/></g></g></g><g fill="#c0c0c0" fill-opacity="1"><g transform="translate(52.179726, 54.229609)"><g><path d="M 11.15625 0.515625 C 8.726562 0.515625 6.878906 -0.132812 5.609375 -1.4375 C 4.335938 -2.75 3.703125 -4.738281 3.703125 -7.40625 L 3.703125 -37.640625 L 10.4375 -37.640625 L 10.4375 -7.671875 C 10.4375 -6.023438 11.117188 -5.203125 12.484375 -5.203125 C 12.878906 -5.203125 13.296875 -5.269531 13.734375 -5.40625 L 14.078125 -5.3125 L 14.6875 -0.125 C 14.3125 0.0703125 13.8125 0.226562 13.1875 0.34375 C 12.570312 0.457031 11.894531 0.515625 11.15625 0.515625 Z M 11.15625 0.515625 "/></g></g></g><g fill="#c0c0c0" fill-opacity="1"><g transform="translate(64.542413, 54.229609)"><g><path d="M 18.484375 0 L 10.4375 0 L 0.515625 -26.859375 L 7.578125 -26.859375 L 14.234375 -7.71875 L 14.796875 -7.71875 L 21.5 -26.859375 L 28.390625 -26.859375 Z M 18.484375 0 "/></g></g></g><g fill="#c0c0c0" fill-opacity="1"><g transform="translate(94.372781, 54.229609)"><g><path d="M 26.53125 -11.90625 L 9.28125 -11.90625 C 9.46875 -9.570312 10.128906 -7.867188 11.265625 -6.796875 C 12.398438 -5.734375 13.953125 -5.203125 15.921875 -5.203125 C 17.460938 -5.203125 18.710938 -5.488281 19.671875 -6.0625 C 20.628906 -6.644531 21.398438 -7.519531 21.984375 -8.6875 L 22.5 -8.6875 L 26.96875 -5.8125 C 26.09375 -3.9375 24.769531 -2.410156 23 -1.234375 C 21.238281 -0.0664062 18.878906 0.515625 15.921875 0.515625 C 13.148438 0.515625 10.753906 -0.0078125 8.734375 -1.0625 C 6.710938 -2.125 5.148438 -3.695312 4.046875 -5.78125 C 2.953125 -7.863281 2.40625 -10.410156 2.40625 -13.421875 C 2.40625 -16.460938 2.984375 -19.03125 4.140625 -21.125 C 5.296875 -23.21875 6.851562 -24.78125 8.8125 -25.8125 C 10.78125 -26.84375 12.988281 -27.359375 15.4375 -27.359375 C 19.226562 -27.359375 22.132812 -26.351562 24.15625 -24.34375 C 26.175781 -22.332031 27.1875 -19.378906 27.1875 -15.484375 C 27.1875 -14.066406 27.140625 -12.972656 27.046875 -12.203125 Z M 20.75 -16.265625 C 20.675781 -18.304688 20.195312 -19.789062 19.3125 -20.71875 C 18.425781 -21.65625 17.132812 -22.125 15.4375 -22.125 C 12.03125 -22.125 10.023438 -20.171875 9.421875 -16.265625 Z M 20.75 -16.265625 "/></g></g></g><g fill="#c0c0c0" fill-opacity="1"><g transform="translate(127.708997, 54.229609)"><g><path d="M 3.875 0 L 3.875 -26.859375 L 10.421875 -26.859375 L 10.421875 -22.859375 L 10.9375 -22.765625 C 11.582031 -24.253906 12.429688 -25.347656 13.484375 -26.046875 C 14.535156 -26.742188 15.816406 -27.09375 17.328125 -27.09375 C 18.859375 -27.09375 20.019531 -26.832031 20.8125 -26.3125 L 19.671875 -20.5 L 19.15625 -20.40625 C 18.71875 -20.582031 18.296875 -20.707031 17.890625 -20.78125 C 17.484375 -20.863281 16.988281 -20.90625 16.40625 -20.90625 C 14.519531 -20.90625 13.082031 -20.242188 12.09375 -18.921875 C 11.101562 -17.597656 10.609375 -15.476562 10.609375 -12.5625 L 10.609375 0 Z M 3.875 0 "/></g></g></g><g fill="#ffffff" fill-opacity="1"><g transform="translate(4.82332, 52.261418)"><g><path d="M 13.09375 0.4375 C 11.207031 0.4375 9.515625 0.179688 8.015625 -0.328125 C 6.523438 -0.847656 5.28125 -1.523438 4.28125 -2.359375 C 3.28125 -3.191406 2.535156 -4.109375 2.046875 -5.109375 L 3.984375 -7.4375 L 4.484375 -7.4375 C 6.347656 -4.3125 9.21875 -2.75 13.09375 -2.75 C 15.351562 -2.75 17.03125 -3.21875 18.125 -4.15625 C 19.226562 -5.101562 19.78125 -6.414062 19.78125 -8.09375 C 19.78125 -9.082031 19.597656 -9.914062 19.234375 -10.59375 C 18.878906 -11.28125 18.28125 -11.863281 17.4375 -12.34375 C 16.601562 -12.832031 15.472656 -13.253906 14.046875 -13.609375 L 10.53125 -14.46875 C 7.925781 -15.101562 6.003906 -16.101562 4.765625 -17.46875 C 3.523438 -18.84375 2.90625 -20.582031 2.90625 -22.6875 C 2.90625 -24.175781 3.285156 -25.503906 4.046875 -26.671875 C 4.816406 -27.847656 5.941406 -28.765625 7.421875 -29.421875 C 8.898438 -30.078125 10.660156 -30.40625 12.703125 -30.40625 C 14.960938 -30.40625 16.867188 -30.085938 18.421875 -29.453125 C 19.972656 -28.816406 21.210938 -27.863281 22.140625 -26.59375 L 20.421875 -24.265625 L 19.90625 -24.265625 C 19.039062 -25.316406 18.019531 -26.085938 16.84375 -26.578125 C 15.675781 -27.078125 14.296875 -27.328125 12.703125 -27.328125 C 10.628906 -27.328125 9.0625 -26.921875 8 -26.109375 C 6.945312 -25.304688 6.421875 -24.195312 6.421875 -22.78125 C 6.421875 -21.425781 6.804688 -20.347656 7.578125 -19.546875 C 8.359375 -18.742188 9.671875 -18.125 11.515625 -17.6875 L 15.109375 -16.828125 C 18.015625 -16.148438 20.117188 -15.101562 21.421875 -13.6875 C 22.734375 -12.269531 23.390625 -10.460938 23.390625 -8.265625 C 23.390625 -6.566406 23.007812 -5.0625 22.25 -3.75 C 21.488281 -2.445312 20.335938 -1.421875 18.796875 -0.671875 C 17.253906 0.0664062 15.351562 0.4375 13.09375 0.4375 Z M 13.09375 0.4375 "/></g></g></g><g fill="#ffffff" fill-opacity="1"><g transform="translate(36.154504, 52.261418)"><g><path d="M 8.0625 0 L 4.53125 0 L 4.53125 -29.96875 L 8.0625 -29.96875 Z M 8.0625 0 "/></g></g></g><g fill="#ffffff" fill-opacity="1"><g transform="translate(54.821552, 52.261418)"><g><path d="M 9 0.4375 C 7.394531 0.4375 6.132812 -0.015625 5.21875 -0.921875 C 4.3125 -1.835938 3.859375 -3.195312 3.859375 -5 L 3.859375 -31.6875 L 7.203125 -31.6875 L 7.203125 -5.234375 C 7.203125 -4.285156 7.378906 -3.601562 7.734375 -3.1875 C 8.097656 -2.769531 8.664062 -2.5625 9.4375 -2.5625 C 9.894531 -2.5625 10.363281 -2.632812 10.84375 -2.78125 L 11.125 -2.703125 L 11.515625 -0.078125 C 11.273438 0.078125 10.925781 0.203125 10.46875 0.296875 C 10.007812 0.390625 9.519531 0.4375 9 0.4375 Z M 9 0.4375 "/></g></g></g><g fill="#ffffff" fill-opacity="1"><g transform="translate(67.184237, 52.261418)"><g><path d="M 14.3125 0 L 9.71875 0 L 1.109375 -22.609375 L 4.71875 -22.609375 L 11.828125 -3.8125 L 12.296875 -3.8125 L 19.359375 -22.609375 L 22.875 -22.609375 Z M 14.3125 0 "/></g></g></g><g fill="#ffffff" fill-opacity="1"><g transform="translate(97.014619, 52.261418)"><g><path d="M 21.546875 -10.53125 L 6 -10.53125 C 6.101562 -7.789062 6.765625 -5.773438 7.984375 -4.484375 C 9.203125 -3.203125 10.878906 -2.5625 13.015625 -2.5625 C 14.628906 -2.5625 15.925781 -2.847656 16.90625 -3.421875 C 17.894531 -3.992188 18.671875 -4.894531 19.234375 -6.125 L 19.65625 -6.125 L 21.828125 -4.84375 C 21.171875 -3.195312 20.117188 -1.90625 18.671875 -0.96875 C 17.234375 -0.03125 15.347656 0.4375 13.015625 0.4375 C 10.828125 0.4375 8.945312 0.00390625 7.375 -0.859375 C 5.800781 -1.722656 4.59375 -3.03125 3.75 -4.78125 C 2.90625 -6.53125 2.484375 -8.703125 2.484375 -11.296875 C 2.484375 -13.867188 2.929688 -16.035156 3.828125 -17.796875 C 4.722656 -19.554688 5.941406 -20.867188 7.484375 -21.734375 C 9.035156 -22.609375 10.8125 -23.046875 12.8125 -23.046875 C 15.707031 -23.046875 17.96875 -22.226562 19.59375 -20.59375 C 21.21875 -18.957031 22.039062 -16.535156 22.0625 -13.328125 C 22.0625 -12.066406 22.03125 -11.21875 21.96875 -10.78125 Z M 18.75 -13.328125 C 18.695312 -15.734375 18.164062 -17.484375 17.15625 -18.578125 C 16.144531 -19.671875 14.695312 -20.21875 12.8125 -20.21875 C 10.832031 -20.21875 9.273438 -19.664062 8.140625 -18.5625 C 7.015625 -17.457031 6.332031 -15.710938 6.09375 -13.328125 Z M 18.75 -13.328125 "/></g></g></g><g fill="#ffffff" fill-opacity="1"><g transform="translate(130.350813, 52.261418)"><g><path d="M 3.9375 0 L 3.9375 -22.609375 L 7.109375 -22.609375 L 7.109375 -19.0625 L 7.546875 -18.96875 C 8.597656 -21.53125 10.578125 -22.8125 13.484375 -22.8125 C 15.035156 -22.8125 16.191406 -22.53125 16.953125 -21.96875 L 16.09375 -19.140625 L 15.6875 -19.0625 C 14.832031 -19.488281 13.898438 -19.703125 12.890625 -19.703125 C 11.085938 -19.703125 9.703125 -19.023438 8.734375 -17.671875 C 7.765625 -16.316406 7.28125 -14.125 7.28125 -11.09375 L 7.28125 0 Z M 3.9375 0 "/></g></g></g></svg>